<?xml version="1.0" encoding="UTF-8" standalone="no"?>
<!-- Created with Inkscape (http://www.inkscape.org/) -->

<svg
   width="125.026mm"
   height="155.60384mm"
   viewBox="0 0 125.026 155.60384"
   version="1.1"
   id="svg1"
   xml:space="preserve"
   xmlns="http://www.w3.org/2000/svg"
   xmlns:svg="http://www.w3.org/2000/svg"><defs
     id="defs1"><rect
       x="167"
       y="615"
       width="433"
       height="148"
       id="rect2" /></defs><g
     id="layer1"
     transform="translate(-40.013195,-78.546502)"><rect
       style="fill:#ffffff;stroke-width:0.277557"
       id="rect4"
       width="125.026"
       height="155.60382"
       x="40.013195"
       y="78.546501" /><g
       id="text271"
       style="font-size:25.4px;stroke-width:0.264583"
       aria-label="Intelligent&#10;Robotics"
       transform="translate(5.0000001e-7,0.54212854)"><path
         style="font-family:Segemloo;-inkscape-font-specification:'Segemloo Medium';text-align:center;text-anchor:middle;white-space:pre;inline-size:36.5278;fill:#ff0000"
         d="m 98.009639,229.22442 c 0.1016,-0.3048 0.254,-0.6604 0.4318,-1.0922 0.2032,-0.4572 0.4064,-0.9906 0.660399,-1.651 0.254,-0.635 0.508,-1.397 0.8128,-2.2606 0.304802,-0.8636 0.635002,-1.8796 0.990602,-3.0226 0.2032,-0.7366 0.4064,-1.4224 0.5588,-1.9812 0.1778,-0.5588 0.3048,-1.1176 0.4318,-1.651 0.1524,-0.5334 0.2794,-1.0922 0.381,-1.6764 0.127,-0.5842 0.254,-1.2446 0.4064,-1.9558 0.4572,0.127 0.8382,0.3048 1.1684,0.5842 0.3556,0.2794 0.6858,0.7112 1.016,1.2192 -0.1016,0.2032 -0.2286,0.4826 -0.381,0.8636 -0.1524,0.381 -0.3556,0.889 -0.5588,1.4478 -0.2032,0.5842 -0.4572,1.2446 -0.7112,1.9558 -0.254,0.7366 -0.5334,1.524 -0.8128,2.3368 -0.2794,0.8382 -0.5334,1.6002 -0.8128,2.3114 -0.254,0.7366 -0.4826,1.3716 -0.6858,1.9558 -0.2032,0.5842 -0.3556,1.0922 -0.4826,1.4986 -0.127,0.4318 -0.2032,0.762 -0.2032,0.9652 v 0.0762 h 0.0762 c 0.2032,0 0.381,0 0.5588,-0.0254 0.1524,0 0.3302,-0.0254 0.508,-0.0762 0.1778,-0.0254 0.3556,-0.0762 0.5588,-0.127 0.2032,-0.0254 0.4572,-0.1016 0.7366,-0.1778 0.254,-0.0762 0.4826,-0.127 0.6858,-0.1778 0.2032,-0.0508 0.4064,-0.1016 0.6096,-0.127 0.2032,-0.0508 0.4064,-0.0762 0.635,-0.0762 0.2032,-0.0254 0.4318,-0.0508 0.6858,-0.0762 0.2794,0.5588 0.4064,1.1176 0.4064,1.6256 0,0.127 0,0.2286 -0.0254,0.3302 0,0.0762 -0.0254,0.1778 -0.0254,0.254 -0.2032,-0.0254 -0.4064,-0.0508 -0.6096,-0.0508 h -1.6002 c -0.3048,0 -0.6604,0.0254 -1.0414,0.0762 -0.3556,0.0508 -0.7874,0.1016 -1.2446,0.1778 -0.4318,0.0762 -0.9652,0.1778 -1.574802,0.2794 -0.254,-0.1016 -0.5334,-0.3048 -0.787399,-0.6096 -0.2794,-0.3302 -0.5334,-0.7112 -0.762,-1.143 z m 1.549399,1.905 h 0.0254 c 0.609602,-0.1016 1.143002,-0.2032 1.574802,-0.2794 0.4572,-0.0762 0.889,-0.127 1.2446,-0.1778 0.381,-0.0508 0.7112,-0.0762 1.016,-0.0762 h 1.6002 c 0.2286,0 0.4318,0.0254 0.635,0.0508 l 0.0762,0.0254 0.0254,-0.0762 c 0.0254,-0.1016 0.0508,-0.2286 0.0508,-0.3302 0.0254,-0.1016 0.0508,-0.2286 0.0508,-0.3556 0,-0.5588 -0.1778,-1.143 -0.4826,-1.7526 l -0.0254,-0.0508 -0.0508,0.0254 c -0.2794,0.0254 -0.508,0.0508 -0.7366,0.0762 -0.2032,0 -0.4318,0.0254 -0.635,0.0762 -0.2032,0.0254 -0.4064,0.0762 -0.6096,0.127 -0.2286,0.0508 -0.4572,0.1016 -0.7112,0.1778 -0.2794,0.0762 -0.508,0.1524 -0.7112,0.2032 -0.2032,0.0254 -0.4064,0.0762 -0.5588,0.1016 -0.1778,0.0508 -0.3556,0.0762 -0.508,0.0762 -0.127,0.0254 -0.2794,0.0254 -0.4572,0.0254 0.0254,-0.2032 0.0762,-0.4826 0.2032,-0.8382 0.1016,-0.4064 0.2794,-0.9144 0.4826,-1.4986 0.2032,-0.5842 0.4318,-1.2192 0.6858,-1.9558 0.254,-0.7112 0.5334,-1.4732 0.8128,-2.3114 0.2794,-0.8128 0.5334,-1.6002 0.8128,-2.3368 0.254,-0.7112 0.4826,-1.3716 0.7112,-1.9558 0.2032,-0.5588 0.4064,-1.0414 0.5588,-1.4478 0.1524,-0.4064 0.2794,-0.6858 0.381,-0.8636 l 0.0254,-0.0508 -0.0254,-0.0254 c -0.3302,-0.5588 -0.6858,-1.016 -1.0668,-1.3208 -0.3556,-0.2794 -0.8128,-0.508 -1.3208,-0.6096 l -0.0762,-0.0254 v 0.0762 c -0.1524,0.7366 -0.3048,1.4224 -0.4064,2.032 -0.127,0.5588 -0.254,1.143 -0.381,1.651 -0.127,0.5334 -0.2794,1.0922 -0.4572,1.651 -0.1524,0.5842 -0.3302,1.2446 -0.5588,1.9812 -0.3556,1.143 -0.6858,2.159 -0.965202,3.0226 -0.3048,0.8636 -0.5842,1.6256 -0.838199,2.2606 -0.254,0.6604 -0.4572,1.1938 -0.635,1.6256 -0.2032,0.4572 -0.3556,0.8382 -0.4826,1.143 v 0.0254 l 0.0254,0.0508 c 0.2286,0.4572 0.508,0.8636 0.7874,1.1938 0.3048,0.3302 0.584199,0.5588 0.888999,0.6604 z m 5.740402,-2.921 c -0.254,0.0254 -0.508,0.0508 -0.7366,0.0762 -0.2032,0 -0.4064,0.0254 -0.6096,0.0762 -0.2032,0.0254 -0.4064,0.0762 -0.635,0.127 -0.2032,0.0508 -0.4318,0.1016 -0.6858,0.1778 -0.2794,0.0762 -0.5334,0.1524 -0.7366,0.1778 -0.2032,0.0508 -0.381,0.1016 -0.5588,0.127 -0.1778,0.0508 -0.3302,0.0762 -0.4826,0.0762 -0.1778,0.0254 -0.3556,0.0254 -0.5588,0.0254 0,-0.2032 0.0762,-0.508 0.2032,-0.9398 0.127,-0.4064 0.2794,-0.9144 0.4826,-1.4986 0.2032,-0.5842 0.4318,-1.2192 0.6858,-1.9558 0.2794,-0.7112 0.5334,-1.4732 0.8128,-2.3114 0.2794,-0.8128 0.5588,-1.6002 0.8128,-2.3368 0.254,-0.7112 0.4826,-1.3716 0.7112,-1.9558 0.2032,-0.5588 0.4064,-1.0668 0.5588,-1.4478 0.1524,-0.4064 0.3048,-0.7112 0.381,-0.889 -0.3302,-0.5588 -0.6604,-0.9652 -1.0414,-1.27 -0.3556,-0.3048 -0.7874,-0.508 -1.27,-0.6096 -0.1524,0.762 -0.3048,1.4224 -0.4318,2.0066 -0.1016,0.5842 -0.2286,1.143 -0.3556,1.6764 -0.1524,0.5334 -0.2794,1.0922 -0.4572,1.651 -0.1524,0.5842 -0.3302,1.2446 -0.5588,1.9812 -0.3556,1.143 -0.6858,2.1336 -0.990602,3.0226 -0.2794,0.8636 -0.5588,1.6002 -0.8128,2.2606 -0.253999,0.635 -0.457199,1.1938 -0.634999,1.651 -0.2032,0.4318 -0.3556,0.8128 -0.4826,1.1176 0.254,0.4572 0.508,0.8636 0.8128,1.1938 0.279399,0.3048 0.558799,0.5334 0.838199,0.635 0.609602,-0.1016 1.143002,-0.2032 1.600202,-0.2794 0.4572,-0.0762 0.8636,-0.127 1.2446,-0.1778 0.3556,-0.0508 0.7112,-0.0762 1.016,-0.0762 0.2794,0 0.5842,0 0.889,0 0.254,0 0.4826,0 0.7112,0 0.2286,0 0.4572,0.0254 0.6604,0.0762 0.0254,-0.127 0.0508,-0.2286 0.0508,-0.3302 0.0254,-0.1016 0.0508,-0.2286 0.0508,-0.3556 0,-0.5334 -0.1778,-1.1176 -0.4826,-1.7018 z m 8.23455,-6.8072 c -0.1524,0.3302 -0.2794,0.635 -0.4318,0.9906 -0.1524,0.3302 -0.3302,0.6858 -0.4826,1.016 -0.1524,0.3302 -0.3048,0.635 -0.4826,0.9398 -0.1524,0.3048 -0.2794,0.5842 -0.4064,0.8382 -0.6604,1.27 -1.2446,2.2098 -1.7018,2.794 -0.4826,0.6096 -0.889,0.9652 -1.2446,1.0414 -0.1778,-0.0762 -0.254,-0.2286 -0.254,-0.508 0,-0.635 0.127,-1.3208 0.4064,-2.0574 0.2794,-0.7366 0.6096,-1.4224 1.0414,-2.0574 0.4318,-0.635 0.9144,-1.1938 1.4224,-1.651 0.5334,-0.4572 1.0414,-0.7366 1.524,-0.8128 0,-0.127 -0.0508,-0.2794 -0.1524,-0.4318 -0.1016,-0.1778 -0.2286,-0.3556 -0.3556,-0.5334 -0.1524,-0.1524 -0.3048,-0.3048 -0.4572,-0.4318 -0.1524,-0.127 -0.2794,-0.2032 -0.4064,-0.2286 -0.508,0 -1.0414,0.2286 -1.5748,0.7366 -0.5588,0.4826 -1.0414,1.0922 -1.524,1.8542 -0.4572,0.7366 -0.8382,1.524 -1.143,2.3876 -0.2794,0.8636 -0.4318,1.7018 -0.4318,2.4638 0,0.7366 0.1524,1.3208 0.4318,1.8034 0.2794,0.4572 0.635,0.6858 1.0922,0.6858 0.3048,-0.0508 0.6096,-0.2032 0.9398,-0.4826 0.3556,-0.2794 0.6858,-0.6096 1.016,-1.0414 0.3302,-0.4318 0.6604,-0.9144 0.9906,-1.4986 0.3048,-0.5588 0.6096,-1.143 0.8382,-1.778 -0.4572,1.3716 -0.6858,2.4638 -0.6858,3.2512 0,1.016 0.3302,1.524 0.9906,1.524 0.1778,0 0.381,-0.0254 0.635,-0.1016 0.2286,-0.0508 0.4318,-0.1524 0.5588,-0.254 -0.1524,-0.127 -0.2794,-0.3048 -0.3556,-0.5588 -0.0762,-0.254 -0.127,-0.5842 -0.127,-0.9652 0,-0.3556 0.0508,-0.762 0.127,-1.2446 0.0762,-0.4572 0.2032,-0.9652 0.3556,-1.4986 0.127,-0.5588 0.3048,-1.1176 0.5334,-1.7018 0.2032,-0.5842 0.4318,-1.1684 0.6858,-1.7526 0,-0.0762 -0.0508,-0.1524 -0.1524,-0.2286 -0.0762,-0.1016 -0.2032,-0.1778 -0.3302,-0.254 -0.1524,-0.0762 -0.3048,-0.127 -0.4572,-0.1778 -0.1778,-0.0508 -0.3048,-0.0762 -0.4318,-0.0762 z m 3.84036,8.5598 c 0,0.0508 0.0508,0.127 0.127,0.2032 0.0762,0.0762 0.1778,0.127 0.3048,0.2032 0.127,0.0508 0.2794,0.1016 0.4318,0.127 0.1524,0.0508 0.3048,0.0762 0.4572,0.0762 0.3556,0 0.7112,-0.1524 1.0922,-0.4064 0.4064,-0.254 0.7874,-0.6096 1.1684,-1.0414 0.4064,-0.4572 0.762,-0.9652 1.1176,-1.5494 0.3556,-0.5842 0.6604,-1.1938 0.9398,-1.8288 0.2794,-0.635 0.508,-1.27 0.6604,-1.9304 0.1778,-0.6604 0.2794,-1.2954 0.2794,-1.8796 -0.0254,-0.254 -0.0762,-0.4826 -0.1778,-0.7112 -0.1016,-0.2286 -0.2286,-0.4318 -0.381,-0.635 -0.1524,-0.2032 -0.3048,-0.381 -0.508,-0.508 -0.1778,-0.1524 -0.3556,-0.254 -0.5588,-0.3048 -0.254,0 -0.5842,0.1524 -0.9652,0.4572 -0.4064,0.3048 -0.8128,0.7112 -1.2446,1.2192 -0.4064,0.5334 -0.8382,1.1176 -1.27,1.778 -0.4318,0.6858 -0.8382,1.3716 -1.1684,2.1082 0.635,-2.6416 1.4478,-4.9276 2.4384,-6.858 0.9906,-1.9304 2.159,-3.5306 3.5306,-4.7498 -0.0762,-0.1016 -0.2032,-0.2286 -0.3556,-0.3556 -0.1524,-0.1016 -0.3048,-0.2286 -0.4826,-0.3556 -0.1778,-0.127 -0.3556,-0.254 -0.5334,-0.3302 -0.1524,-0.1016 -0.3048,-0.1778 -0.4318,-0.2286 -0.4064,0.2032 -0.8128,0.6096 -1.27,1.1938 -0.4318,0.6096 -0.889,1.3208 -1.3208,2.1844 -0.4318,0.8636 -0.8636,1.8034 -1.27,2.8448 -0.4064,1.0414 -0.762,2.0828 -1.0668,3.1496 -0.3048,1.0668 -0.5334,2.1082 -0.7366,3.1496 -0.1778,1.016 -0.254,1.9558 -0.254,2.7686 0,0.254 0,0.4318 0.0508,0.5334 0.0254,0.0508 0.0762,0.127 0.1524,0.2032 0.0508,0.0762 0.1016,0.1524 0.1778,0.2032 0.127,0.1016 0.2286,0.2032 0.2794,0.2794 0.0762,0.0762 0.127,0.1524 0.1524,0.2032 0.0762,0.2794 0.1778,0.4318 0.3048,0.4318 0.0254,-0.3556 0.1524,-0.8128 0.3556,-1.3716 0.2286,-0.5588 0.4826,-1.1684 0.7874,-1.8034 0.3048,-0.6604 0.6604,-1.2954 1.0414,-1.9558 0.381,-0.635 0.7366,-1.2446 1.0922,-1.7526 0.381,-0.5334 0.7112,-0.9652 1.016,-1.3208 0.3048,-0.3302 0.5334,-0.508 0.7112,-0.508 0.1524,0.0508 0.2286,0.1778 0.2286,0.3302 -0.1016,0.7874 -0.3048,1.6002 -0.6096,2.4384 -0.3302,0.8636 -0.6858,1.6764 -1.143,2.4638 -0.4318,0.762 -0.9398,1.4986 -1.4732,2.1844 -0.5588,0.6604 -1.1176,1.2192 -1.6764,1.651 z"
         id="text3"
         transform="matrix(1.3614624,0,0,1.3614624,-48.449631,-86.092914)"
         aria-label="L a b" /><text
         xml:space="preserve"
         transform="scale(0.26458333)"
         id="text1"
         style="font-style:normal;font-variant:normal;font-weight:normal;font-stretch:normal;font-size:96px;font-family:Comfortaa;-inkscape-font-specification:Comfortaa;text-align:center;writing-mode:lr-tb;direction:ltr;white-space:pre;shape-inside:url(#rect2);display:inline;fill:#ff0000" /><g
         id="text4"
         style="font-size:21.5014px;font-family:Comfortaa;-inkscape-font-specification:Comfortaa;text-align:center;text-anchor:middle;stroke-width:0.0592595"
         aria-label="Intelligent&#10;Robotics"
         transform="translate(-2.4738051,-1.5662087)"><path
           style="font-weight:bold"
           d="m 49.591009,163.31402 q 0,-0.49453 0.322521,-0.79555 0.322521,-0.32252 0.795552,-0.32252 0.494532,0 0.795551,0.32252 0.322521,0.30102 0.322521,0.79555 v 14.55645 q 0,0.47303 -0.322521,0.79555 -0.301019,0.32252 -0.795551,0.32252 -0.473031,0 -0.795552,-0.32252 -0.322521,-0.32252 -0.322521,-0.79555 z m 12.16977,3.80575 q 1.483596,0 2.666173,0.64504 1.182577,0.64504 1.849121,1.89212 0.666543,1.22558 0.666543,2.9672 v 5.28934 q 0,0.47303 -0.322521,0.79555 -0.301019,0.30102 -0.77405,0.30102 -0.473031,0 -0.795552,-0.30102 -0.30102,-0.32252 -0.30102,-0.79555 v -5.28934 q 0,-1.74162 -0.946061,-2.62317 -0.92456,-0.90306 -2.472661,-0.90306 -0.903059,0 -1.655608,0.36552 -0.731048,0.36552 -1.161076,0.98906 -0.408526,0.62355 -0.408526,1.3976 v 6.06339 q 0,0.47303 -0.30102,0.79555 -0.301019,0.30102 -0.795552,0.30102 -0.47303,0 -0.795551,-0.30102 -0.30102,-0.32252 -0.30102,-0.79555 v -9.58962 q 0,-0.49454 0.30102,-0.79556 0.322521,-0.30102 0.795551,-0.30102 0.494533,0 0.795552,0.30102 0.30102,0.30102 0.30102,0.79556 v 0.23651 q 0.688045,-0.68804 1.634106,-1.05357 0.946062,-0.38702 2.021132,-0.38702 z m 13.825382,9.71863 q 0.387025,0 0.645042,0.30102 0.279518,0.30102 0.279518,0.77405 0,0.47303 -0.365523,0.77405 -0.344023,0.30102 -0.903059,0.30102 h -0.387025 q -1.053569,0 -1.935126,-0.53753 -0.860056,-0.55904 -1.354589,-1.5051 -0.494532,-0.94606 -0.494532,-2.12864 v -5.31085 h -0.989064 q -0.45153,0 -0.731048,-0.25801 -0.279518,-0.25802 -0.279518,-0.64505 0,-0.43002 0.279518,-0.68804 0.279518,-0.25802 0.731048,-0.25802 h 0.989064 v -3.0962 q 0,-0.47303 0.30102,-0.77405 0.301019,-0.30102 0.77405,-0.30102 0.473031,0 0.774051,0.30102 0.301019,0.30102 0.301019,0.77405 v 3.0962 h 1.827619 q 0.45153,0 0.731048,0.25802 0.279518,0.25802 0.279518,0.68804 0,0.38703 -0.279518,0.64505 -0.279518,0.25801 -0.731048,0.25801 h -1.827619 v 5.31085 q 0,0.86006 0.473031,1.44059 0.473031,0.58054 1.161076,0.58054 z m 14.169403,-3.91325 q 0,0.40852 -0.279518,0.68804 -0.279518,0.25802 -0.709546,0.25802 h -8.170532 q 0.236515,1.5051 1.354588,2.42966 1.139574,0.92456 2.773681,0.92456 0.645042,0 1.333086,-0.23652 0.709547,-0.23651 1.161076,-0.58054 0.30102,-0.23651 0.709546,-0.23651 0.408527,0 0.645042,0.21501 0.387025,0.32252 0.387025,0.73105 0,0.38702 -0.344022,0.64504 -0.731048,0.58054 -1.827619,0.94606 -1.07507,0.36553 -2.064134,0.36553 -1.763115,0 -3.160706,-0.75255 -1.397591,-0.77405 -2.193143,-2.12864 -0.77405,-1.35459 -0.77405,-3.0747 0,-1.72011 0.731047,-3.0747 0.752549,-1.37609 2.064135,-2.12864 1.333086,-0.77405 3.010196,-0.77405 1.655607,0 2.859686,0.73105 1.204078,0.73104 1.84912,2.04263 0.645042,1.31159 0.645042,3.0102 z m -5.353848,-3.93476 q -1.569603,0 -2.558667,0.86006 -0.967563,0.86005 -1.22558,2.30065 h 7.159966 q -0.193512,-1.4406 -1.07507,-2.30065 -0.881557,-0.86006 -2.300649,-0.86006 z m 7.718968,-5.71937 q 0,-0.47303 0.301019,-0.77405 0.30102,-0.30102 0.774051,-0.30102 0.47303,0 0.77405,0.30102 0.30102,0.30102 0.30102,0.77405 v 11.73976 q 0,0.79555 0.301019,1.31159 0.30102,0.51603 0.774051,0.51603 h 0.537535 q 0.430028,0 0.688044,0.30102 0.279519,0.30102 0.279519,0.77405 0,0.47303 -0.408527,0.77405 -0.408527,0.30102 -1.053569,0.30102 h -0.043 q -0.924561,0 -1.67711,-0.49453 -0.731047,-0.51604 -1.139574,-1.41909 -0.408526,-0.92456 -0.408526,-2.06414 z m 6.450405,0 q 0,-0.47303 0.301019,-0.77405 0.30102,-0.30102 0.774051,-0.30102 0.473031,0 0.774051,0.30102 0.30102,0.30102 0.30102,0.77405 v 11.73976 q 0,0.79555 0.30102,1.31159 0.30102,0.51603 0.77405,0.51603 h 0.53753 q 0.43003,0 0.68805,0.30102 0.27952,0.30102 0.27952,0.77405 0,0.47303 -0.40853,0.77405 -0.40853,0.30102 -1.05357,0.30102 h -0.043 q -0.92456,0 -1.67711,-0.49453 -0.731048,-0.51604 -1.139575,-1.41909 -0.408526,-0.92456 -0.408526,-2.06414 z m 7.095441,5.05283 q 0,-0.49454 0.30102,-0.79556 0.32252,-0.30102 0.79555,-0.30102 0.49454,0 0.79556,0.30102 0.30101,0.30102 0.30101,0.79556 v 9.56812 q 0,0.47303 -0.30101,0.79555 -0.30102,0.30102 -0.79556,0.30102 -0.47303,0 -0.79555,-0.30102 -0.30102,-0.32252 -0.30102,-0.79555 z m 1.09657,-5.84838 q 0.58054,0 0.98907,0.43002 0.43003,0.40853 0.43003,0.98907 0,0.58054 -0.43003,1.01056 -0.40853,0.40853 -0.98907,0.40853 -0.58053,0 -1.01056,-0.40853 -0.40853,-0.43002 -0.40853,-1.01056 0,-0.58054 0.40853,-0.98907 0.43003,-0.43002 1.01056,-0.43002 z m 10.51415,4.6658 q 1.69861,0 3.0317,0.77405 1.35459,0.75255 2.10714,2.10714 0.77405,1.35459 0.77405,3.0962 v 4.6443 q 0,1.69861 -0.75255,3.0962 -0.75255,1.39759 -2.12864,2.19315 -1.35459,0.81705 -3.0747,0.81705 -1.5481,0 -2.88119,-0.62354 -1.33309,-0.60204 -2.23615,-1.74162 -0.23651,-0.30102 -0.23651,-0.60203 0,-0.45153 0.45153,-0.77406 0.30102,-0.19351 0.60204,-0.19351 0.53753,0 0.88156,0.45153 0.58053,0.75255 1.46209,1.13958 0.88156,0.40852 1.99963,0.40852 1.05357,0 1.91363,-0.51603 0.86005,-0.49453 1.37608,-1.4836 0.51604,-0.96756 0.51604,-2.32215 v -1.05357 q -0.66654,1.18258 -1.76312,1.84912 -1.09657,0.66655 -2.47266,0.66655 -1.5911,0 -2.85968,-0.75255 -1.24708,-0.77405 -1.95663,-2.12864 -0.68805,-1.35459 -0.68805,-3.0747 0,-1.74161 0.75255,-3.0962 0.75255,-1.35459 2.10714,-2.10714 1.35459,-0.77405 3.0747,-0.77405 z m 0,9.99815 q 1.09657,0 1.95663,-0.51603 0.88156,-0.51604 1.35459,-1.4191 0.49453,-0.92456 0.49453,-2.08563 0,-1.16108 -0.49453,-2.08564 -0.47303,-0.92456 -1.35459,-1.44059 -0.86006,-0.51603 -1.95663,-0.51603 -1.09657,0 -1.97813,0.51603 -0.86005,0.51603 -1.35459,1.44059 -0.49453,0.92456 -0.49453,2.08564 0,1.16107 0.49453,2.08563 0.49454,0.90306 1.35459,1.4191 0.88156,0.51603 1.97813,0.51603 z m 19.73827,-4.21427 q 0,0.40852 -0.27952,0.68804 -0.27952,0.25802 -0.70955,0.25802 h -8.17053 q 0.23652,1.5051 1.35459,2.42966 1.13957,0.92456 2.77368,0.92456 0.64504,0 1.33309,-0.23652 0.70954,-0.23651 1.16107,-0.58054 0.30102,-0.23651 0.70955,-0.23651 0.40853,0 0.64504,0.21501 0.38703,0.32252 0.38703,0.73105 0,0.38702 -0.34403,0.64504 -0.73104,0.58054 -1.82761,0.94606 -1.07507,0.36553 -2.06414,0.36553 -1.76311,0 -3.1607,-0.75255 -1.3976,-0.77405 -2.19315,-2.12864 -0.77405,-1.35459 -0.77405,-3.0747 0,-1.72011 0.73105,-3.0747 0.75255,-1.37609 2.06413,-2.12864 1.33309,-0.77405 3.0102,-0.77405 1.65561,0 2.85969,0.73105 1.20407,0.73104 1.84912,2.04263 0.64504,1.31159 0.64504,3.0102 z m -5.35385,-3.93476 q -1.5696,0 -2.55867,0.86006 -0.96756,0.86005 -1.22558,2.30065 h 7.15997 q -0.19351,-1.4406 -1.07507,-2.30065 -0.88156,-0.86006 -2.30065,-0.86006 z m 13.99738,-1.87062 q 1.48359,0 2.66617,0.64504 1.18258,0.64504 1.84912,1.89212 0.66654,1.22558 0.66654,2.9672 v 5.28934 q 0,0.47303 -0.32252,0.79555 -0.30102,0.30102 -0.77405,0.30102 -0.47303,0 -0.79555,-0.30102 -0.30102,-0.32252 -0.30102,-0.79555 v -5.28934 q 0,-1.74162 -0.94606,-2.62317 -0.92456,-0.90306 -2.47266,-0.90306 -0.90306,0 -1.65561,0.36552 -0.73105,0.36552 -1.16108,0.98906 -0.40852,0.62355 -0.40852,1.3976 v 6.06339 q 0,0.47303 -0.30102,0.79555 -0.30102,0.30102 -0.79555,0.30102 -0.47304,0 -0.79556,-0.30102 -0.30102,-0.32252 -0.30102,-0.79555 v -9.58962 q 0,-0.49454 0.30102,-0.79556 0.32252,-0.30102 0.79556,-0.30102 0.49453,0 0.79555,0.30102 0.30102,0.30102 0.30102,0.79556 v 0.23651 q 0.68804,-0.68804 1.6341,-1.05357 0.94607,-0.38702 2.02114,-0.38702 z m 13.82538,9.71863 q 0.38703,0 0.64504,0.30102 0.27952,0.30102 0.27952,0.77405 0,0.47303 -0.36552,0.77405 -0.34403,0.30102 -0.90306,0.30102 h -0.38703 q -1.05357,0 -1.93512,-0.53753 -0.86006,-0.55904 -1.35459,-1.5051 -0.49453,-0.94606 -0.49453,-2.12864 v -5.31085 h -0.98907 q -0.45153,0 -0.73105,-0.25801 -0.27951,-0.25802 -0.27951,-0.64505 0,-0.43002 0.27951,-0.68804 0.27952,-0.25802 0.73105,-0.25802 h 0.98907 v -3.0962 q 0,-0.47303 0.30102,-0.77405 0.30102,-0.30102 0.77405,-0.30102 0.47303,0 0.77405,0.30102 0.30102,0.30102 0.30102,0.77405 v 3.0962 h 1.82762 q 0.45153,0 0.73104,0.25802 0.27952,0.25802 0.27952,0.68804 0,0.38703 -0.27952,0.64505 -0.27951,0.25801 -0.73104,0.25801 h -1.82762 v 5.31085 q 0,0.86006 0.47303,1.44059 0.47303,0.58054 1.16107,0.58054 z"
           id="path1" /><path
           style="font-weight:bold;stroke-width:0.069525"
           d="m 62.380626,201.55283 q 0.252261,0.40361 0.252261,0.83246 0,0.50452 -0.353166,0.85768 -0.327938,0.32795 -0.908137,0.32795 -0.731557,0 -1.135174,-0.63065 l -4.338884,-6.9624 H 55.443457 52.21452 v 6.2813 q 0,0.55496 -0.378392,0.93336 -0.353164,0.37839 -0.933364,0.37839 -0.554973,0 -0.933364,-0.37839 -0.378391,-0.3784 -0.378391,-0.93336 v -17.07806 q 0,-0.5802 0.378391,-0.93336 0.378391,-0.37839 0.933364,-0.37839 h 4.540693 q 1.866729,0 3.32984,0.78201 1.488338,0.782 2.295573,2.19466 0.83246,1.41266 0.83246,3.22894 0,1.79105 -0.908138,3.17849 -0.908139,1.38744 -2.472155,2.09376 z m -6.937169,-7.99667 q 1.715372,0 2.825319,-0.95859 1.109947,-0.98381 1.109947,-2.5226 0,-1.66492 -1.109947,-2.72442 -1.109947,-1.0595 -2.825319,-1.0595 H 52.21452 v 7.26511 z m 16.094231,-3.8848 q 1.99286,0 3.556876,0.90813 1.589242,0.88292 2.472154,2.47216 0.908139,1.58925 0.908139,3.63255 0,2.01809 -0.882913,3.60733 -0.882912,1.58925 -2.472155,2.49738 -1.564015,0.88292 -3.582101,0.88292 -2.018086,0 -3.607328,-0.88292 -1.589242,-0.90813 -2.472154,-2.49738 -0.882912,-1.58924 -0.882912,-3.60733 0,-2.0433 0.882912,-3.63255 0.882912,-1.58924 2.472154,-2.47216 1.589242,-0.90813 3.607328,-0.90813 z m 0,2.27034 q -1.28653,0 -2.320798,0.60543 -1.009043,0.60542 -1.589243,1.69014 -0.580199,1.08471 -0.580199,2.44693 0,1.3622 0.580199,2.44692 0.5802,1.0595 1.589243,1.66494 1.034268,0.60542 2.320798,0.60542 1.28653,0 2.295573,-0.60542 1.034268,-0.60544 1.589242,-1.66494 0.5802,-1.08472 0.5802,-2.44692 0,-1.36222 -0.5802,-2.44693 -0.554974,-1.08472 -1.589242,-1.69014 -1.009043,-0.60543 -2.295573,-0.60543 z m 12.058043,-8.07234 q -0.580199,0 -0.933365,0.35317 -0.353164,0.35316 -0.353164,0.93336 v 11.50309 q 0,1.96763 0.908138,3.5821 0.933364,1.58923 2.497381,2.52261 1.589242,0.90814 3.531649,0.90814 1.942408,0 3.531651,-0.90814 1.614468,-0.93338 2.522612,-2.52261 0.908131,-1.61447 0.908131,-3.5821 0,-1.96764 -0.857687,-3.55688 -0.832459,-1.61447 -2.320796,-2.52261 -1.463111,-0.90813 -3.279389,-0.90813 -1.463111,0 -2.724416,0.60542 -1.261303,0.60543 -2.144215,1.69015 v -6.81104 q 0,-0.5802 -0.378391,-0.93336 -0.353166,-0.35317 -0.908139,-0.35317 z m 5.650639,17.53212 q -1.261303,0 -2.295572,-0.60542 -1.009043,-0.63067 -1.589243,-1.71539 -0.580199,-1.08472 -0.580199,-2.42169 0,-1.337 0.580199,-2.39649 0.5802,-1.08472 1.589243,-1.69014 1.034269,-0.63065 2.295572,-0.63065 1.261305,0 2.270347,0.63065 1.034269,0.60542 1.614467,1.69014 0.605426,1.05949 0.605426,2.39649 0,1.33697 -0.605426,2.42169 -0.580198,1.08472 -1.614467,1.71539 -1.009042,0.60542 -2.270347,0.60542 z m 17.0528,-11.73012 q 1.99286,0 3.55687,0.90813 1.58924,0.88292 2.47216,2.47216 0.90814,1.58925 0.90814,3.63255 0,2.01809 -0.88292,3.60733 -0.88291,1.58925 -2.47215,2.49738 -1.56402,0.88292 -3.5821,0.88292 -2.01809,0 -3.60732,-0.88292 -1.58925,-0.90813 -2.47216,-2.49738 -0.882912,-1.58924 -0.882912,-3.60733 0,-2.0433 0.882912,-3.63255 0.88291,-1.58924 2.47216,-2.47216 1.58923,-0.90813 3.60732,-0.90813 z m 0,2.27034 q -1.28653,0 -2.32079,0.60543 -1.00906,0.60542 -1.58925,1.69014 -0.5802,1.08471 -0.5802,2.44693 0,1.3622 0.5802,2.44692 0.58019,1.0595 1.58925,1.66494 1.03426,0.60542 2.32079,0.60542 1.28653,0 2.29556,-0.60542 1.03427,-0.60544 1.58925,-1.66494 0.58021,-1.08472 0.58021,-2.44692 0,-1.36222 -0.58021,-2.44693 -0.55498,-1.08472 -1.58925,-1.69014 -1.00903,-0.60543 -2.29556,-0.60543 z m 16.64919,9.10661 q 0.45406,0 0.75678,0.35317 0.32794,0.35316 0.32794,0.90813 0,0.55498 -0.42885,0.90814 -0.40362,0.35317 -1.05948,0.35317 h -0.45408 q -1.23607,0 -2.27035,-0.63065 -1.00904,-0.65588 -1.58923,-1.76582 -0.58021,-1.10996 -0.58021,-2.49739 v -6.23085 h -1.16039 q -0.52976,0 -0.85769,-0.30269 -0.32794,-0.30273 -0.32794,-0.7568 0,-0.50451 0.32794,-0.80723 0.32793,-0.30271 0.85769,-0.30271 h 1.16039 v -3.63256 q 0,-0.55497 0.35317,-0.90813 0.35316,-0.35317 0.90813,-0.35317 0.55497,0 0.90814,0.35317 0.35317,0.35316 0.35317,0.90813 v 3.63256 h 2.14421 q 0.52975,0 0.85769,0.30271 0.32794,0.30272 0.32794,0.80723 0,0.45407 -0.32794,0.7568 -0.32794,0.30269 -0.85769,0.30269 h -2.14421 v 6.23085 q 0,1.00905 0.55496,1.69014 0.55499,0.68111 1.36222,0.68111 z m 4.49022,-9.98951 q 0,-0.58021 0.35315,-0.93338 0.3784,-0.35316 0.93338,-0.35316 0.5802,0 0.93336,0.35316 0.35316,0.35317 0.35316,0.93338 v 11.22559 q 0,0.55497 -0.35316,0.93336 -0.35316,0.35317 -0.93336,0.35317 -0.55498,0 -0.93338,-0.35317 -0.35315,-0.37839 -0.35315,-0.93336 z m 1.28653,-6.8615 q 0.68109,0 1.16038,0.50451 0.50454,0.4793 0.50454,1.16041 0,0.68111 -0.50454,1.18562 -0.47929,0.4793 -1.16038,0.4793 -0.68111,0 -1.18563,-0.4793 -0.4793,-0.50451 -0.4793,-1.18562 0,-0.68111 0.4793,-1.16041 0.50452,-0.50451 1.18563,-0.50451 z m 12.20937,5.47406 q 2.97667,0 4.9443,2.27034 0.25227,0.27748 0.25227,0.65587 0,0.55498 -0.55499,0.93336 -0.25225,0.17659 -0.58019,0.17659 -0.5802,0 -0.98381,-0.45406 -0.63066,-0.68111 -1.38744,-0.98382 -0.73156,-0.32794 -1.69014,-0.32794 -1.94241,0 -3.15326,1.31176 -1.21087,1.28653 -1.21087,3.43074 0,1.3622 0.55499,2.44692 0.5802,1.0595 1.58923,1.66494 1.03428,0.60542 2.34603,0.60542 1.71538,0 2.77488,-0.88292 0.47929,-0.35317 0.93335,-0.35317 0.35317,0 0.65589,0.22704 0.47929,0.40363 0.47929,0.90814 0,0.3784 -0.30271,0.6811 -1.81628,1.69016 -4.5407,1.69016 -1.99286,0 -3.58209,-0.90814 -1.58924,-0.90815 -2.49738,-2.49739 -0.88291,-1.61447 -0.88291,-3.5821 0,-2.01808 0.85768,-3.60732 0.8829,-1.61447 2.44692,-2.49739 1.56403,-0.90813 3.53166,-0.90813 z m 13.87433,0 q 1.63969,0 2.92621,0.52974 1.31175,0.52975 2.06855,1.46312 0.32793,0.40361 0.32793,0.80722 0,0.42885 -0.42884,0.78202 -0.27749,0.20181 -0.70633,0.20181 -0.65588,0 -1.18563,-0.4793 -0.63065,-0.5802 -1.33698,-0.80723 -0.70633,-0.25227 -1.71537,-0.25227 -1.1604,0 -1.91718,0.40362 -0.73156,0.37839 -0.73156,1.08472 0,0.50451 0.25226,0.85768 0.25226,0.32794 0.95859,0.63066 0.70633,0.27748 2.04332,0.55497 2.74964,0.55497 3.8848,1.53879 1.16041,0.98382 1.16041,2.54784 0,1.1604 -0.63065,2.11898 -0.63066,0.93338 -1.86673,1.48834 -1.21085,0.52976 -2.92623,0.52976 -1.71537,0 -3.22893,-0.52976 -1.51358,-0.52974 -2.37125,-1.38743 -0.32795,-0.32794 -0.32795,-0.782 0,-0.60544 0.50454,-0.98382 0.47928,-0.35317 0.8829,-0.35317 0.50451,0 0.95859,0.45408 0.4793,0.52974 1.43789,0.93335 0.95858,0.3784 2.0433,0.3784 1.4379,0 2.21991,-0.4793 0.80723,-0.47929 0.80723,-1.28653 0,-0.78201 -0.78201,-1.28653 -0.78201,-0.52975 -2.64874,-0.88292 -4.84341,-0.93335 -4.84341,-3.98571 0,-1.23609 0.73156,-2.09377 0.73156,-0.85768 1.91719,-1.28653 1.18562,-0.42883 2.52261,-0.42883 z"
           id="path3" /></g></g><path
       id="path2-37-9"
       style="fill:#ff0000;stroke-width:0.0492815"
       d="m 105.90379,162.9001 a 1.5585184,1.5585184 0 0 1 -1.55852,1.55852 1.5585184,1.5585184 0 0 1 -1.55852,-1.55852 1.5585184,1.5585184 0 0 1 1.55852,-1.55852 1.5585184,1.5585184 0 0 1 1.55852,1.55852 z" /><path
       id="path2-37-9-0"
       style="fill:#ff0000;stroke-width:0.0573361"
       d="m 128.04528,184.84042 a 1.8132428,1.8132428 0 0 1 -1.81325,1.81325 1.8132428,1.8132428 0 0 1 -1.81324,-1.81325 1.8132428,1.8132428 0 0 1 1.81324,-1.81324 1.8132428,1.8132428 0 0 1 1.81325,1.81324 z" /><g
       id="g4"
       transform="matrix(0.63125121,0,0,0.63125121,67.22451,85.745343)"><rect
         style="fill:#000000;fill-opacity:1;fill-rule:nonzero;stroke-width:1.11847"
         id="rect3"
         width="111.84622"
         height="111.84622"
         x="0"
         y="0"
         ry="9.2488232" /><g
         id="g3"
         transform="matrix(0.87909558,0,0,0.87909558,6.2674631,3.2125087)"><path
           id="path39880"
           fill="#22314e"
           d="m 29.298831,21.501969 c 0,6.232452 -4.889846,11.285048 -10.920859,11.285048 -6.030459,0 -10.9197516,-5.052596 -10.9197516,-11.285048 0,-6.231307 4.8898466,-11.285048 10.9197516,-11.285048 6.031013,0 10.920859,5.053741 10.920859,11.285048 z"
           style="fill:#f40000;fill-opacity:1;fill-rule:nonzero;stroke-width:0.56314" /><path
           id="path39882"
           fill="#22314e"
           d="m 29.298831,59.959751 c 0,6.232452 -4.889846,11.285048 -10.920859,11.285048 -6.030459,0 -10.9197516,-5.052596 -10.9197516,-11.285048 0,-6.232452 4.8898466,-11.285048 10.9197516,-11.285048 6.031013,0 10.920859,5.052596 10.920859,11.285048 z"
           style="fill:#f40000;fill-opacity:1;fill-rule:nonzero;stroke-width:0.56314" /><path
           id="path39884"
           fill="#22314e"
           d="m 29.298831,98.418106 c 0,6.231304 -4.889846,11.285044 -10.920859,11.285044 -6.030459,0 -10.9197516,-5.05374 -10.9197516,-11.285044 0,-6.231307 4.8898466,-11.285049 10.9197516,-11.285049 6.031013,0 10.920859,5.05317 10.920859,11.285049 z"
           style="fill:#f40000;fill-opacity:1;fill-rule:nonzero;stroke-width:0.56314" /><path
           id="path39886"
           fill="#22314e"
           d="m 67.405507,59.959751 c 0,6.232452 -4.889846,11.285048 -10.920859,11.285048 -6.03046,0 -10.919752,-5.052596 -10.919752,-11.285048 0,-6.232452 4.889846,-11.285048 10.919752,-11.285048 6.031013,0 10.920859,5.052596 10.920859,11.285048 z"
           style="fill:#f40000;fill-opacity:1;fill-rule:nonzero;stroke-width:0.56314" /><path
           id="path39888"
           fill="#22314e"
           d="m 67.405507,21.501969 c 0,6.232452 -4.889846,11.285048 -10.920859,11.285048 -6.03046,0 -10.919752,-5.052596 -10.919752,-11.285048 0,-6.231307 4.889846,-11.285048 10.919752,-11.285048 6.031013,0 10.920859,5.053741 10.920859,11.285048 z"
           style="fill:#f40000;fill-opacity:1;fill-rule:nonzero;stroke-width:0.56314" /><path
           id="path39890"
           fill="#22314e"
           d="m 105.51163,59.959751 c 0,6.232452 -4.88985,11.285048 -10.920861,11.285048 -6.030459,0 -10.919751,-5.052596 -10.919751,-11.285048 0,-6.232452 4.889846,-11.285048 10.919751,-11.285048 6.031571,0 10.920861,5.052596 10.920861,11.285048 z"
           style="fill:#f40000;fill-opacity:1;fill-rule:nonzero;stroke-width:0.56314" /><path
           id="path39892"
           fill="#22314e"
           d="m 105.51163,21.501969 c 0,6.232452 -4.88985,11.285048 -10.920861,11.285048 -6.030459,0 -10.919751,-5.052596 -10.919751,-11.285048 0,-6.231307 4.889846,-11.285048 10.919751,-11.285048 6.031571,0 10.920861,5.053741 10.920861,11.285048 z"
           style="fill:#f40000;fill-opacity:1;fill-rule:nonzero;stroke-width:0.56314" /><path
           id="path39894"
           fill="#22314e"
           d="m 105.51163,98.418106 c 0,6.231304 -4.88985,11.285044 -10.920861,11.285044 -6.030459,0 -10.919751,-5.05374 -10.919751,-11.285044 0,-6.231307 4.889846,-11.285049 10.919751,-11.285049 6.031571,0 10.920861,5.05317 10.920861,11.285049 z"
           style="fill:#f40000;fill-opacity:1;fill-rule:nonzero;stroke-width:0.56314" /><path
           id="path39896"
           fill="#22314e"
           d="m 67.405507,98.418106 c 0,6.231304 -4.889846,11.285044 -10.920859,11.285044 -6.03046,0 -10.919752,-5.05374 -10.919752,-11.285044 0,-6.231307 4.889846,-11.285049 10.919752,-11.285049 6.031013,0 10.920859,5.05317 10.920859,11.285049 z"
           style="fill:#f40000;fill-opacity:1;fill-rule:nonzero;stroke-width:0.56314" /></g></g></g></svg>
